<?xml version="1.0" encoding="UTF-8"?>
<svg width="25px" height="16px" viewBox="0 0 25 16" version="1.1" xmlns="http://www.w3.org/2000/svg" xmlns:xlink="http://www.w3.org/1999/xlink">
    <!-- Generator: Sketch 53.2 (72643) - https://sketchapp.com -->
    <title>Group 4</title>
    <desc>Created with Sketch.</desc>
    <g id="Page-1" stroke="none" stroke-width="1" fill="none" fill-rule="evenodd">
        <g id="Dashboard" transform="translate(-32.000000, -475.000000)" fill="#31DD00">
            <g id="Dashboard-card" transform="translate(0.000000, 391.000000)">
                <g id="Group-4" transform="translate(44.500000, 92.000000) rotate(-270.000000) translate(-44.500000, -92.000000) translate(36.500000, 79.500000)">
                    <path d="M13.3567347,2.69995282 L10.8167722,2.69995282 L10.8167722,0.929713057 C10.8167722,0.676821663 10.6049376,0.5 10.3672738,0.5 L5.63262038,0.5 C5.36808505,0.5 5.18312194,0.702510371 5.18312194,0.929713057 L5.18312194,2.69995282 L2.64315947,2.69995282 C1.45275046,2.69995282 0.5,3.61076646 0.5,4.74877774 L0.5,22.4511753 C0.5,23.5891864 1.45275046,24.5 2.64315947,24.5 L13.3568405,24.5 C14.5472495,24.5 15.5,23.5891864 15.5,22.4511753 L15.5,4.74877774 C15.4989683,3.60978019 14.5472495,2.69995282 13.3568405,2.69995282 L13.3567347,2.69995282 Z M13.4890024,22.4502649 C13.4890024,22.5263296 13.4363017,22.5767106 13.3567347,22.5767106 L2.61607105,22.5767106 C2.53650411,22.5767106 2.48380338,22.5263296 2.48380338,22.4502649 L2.48380338,4.74786733 C2.48380338,4.67180265 2.53650411,4.62142163 2.61607105,4.62142163 L13.3297521,4.62142163 C13.4093191,4.62142163 13.4620198,4.67180265 13.4620198,4.74786733 L13.4620198,22.4502649 L13.4890024,22.4502649 Z" id="Fill-1"></path>
                    <path d="M11.7540046,15 L4.22115589,15 C4.09807817,15 4,15.0933921 4,15.2105893 L4,20.7894107 C4,20.9066079 4.09807817,21 4.22115589,21 L11.7778816,21 C11.9009594,21 11.9990375,20.9066079 11.9990375,20.7894107 L12,15.1878531 C11.9750005,15.0706559 11.8769223,15.0001547 11.7538446,15.0001547 L11.7540046,15 Z" id="Fill-2"></path>
                    <path d="M8.68745188,13.4075068 C8.81480543,13.5890406 9.09539076,13.4855963 9.06951252,13.2513278 L8.68745188,10.3954718 L10.2923103,10.3954718 C10.4704066,10.3954718 10.5470174,10.213938 10.4704066,10.0577539 L7.31254812,5.59249321 C7.18519457,5.41095942 6.90460924,5.51440372 6.93048748,5.74867218 L7.31254812,8.60452818 L5.70768969,8.60452818 C5.5295934,8.60452818 5.4529826,8.78606196 5.5295934,8.94224613 L8.68745188,13.4075068 Z" id="Fill-3"></path>
                </g>
            </g>
        </g>
    </g>
</svg>