<?xml version="1.0" encoding="UTF-8"?>
<svg width="24px" height="24px" viewBox="0 0 24 24" version="1.1" xmlns="http://www.w3.org/2000/svg" xmlns:xlink="http://www.w3.org/1999/xlink">
    <!-- Generator: Sketch 53.2 (72643) - https://sketchapp.com -->
    <title>Group 3</title>
    <desc>Created with Sketch.</desc>
    <g id="Page-1" stroke="none" stroke-width="1" fill="none" fill-rule="evenodd">
        <g id="Dashboard" transform="translate(-319.000000, -756.000000)" fill="#FFFFFF">
            <g id="Dashboard-card" transform="translate(0.000000, 391.000000)">
                <g id="Group-3" transform="translate(319.000000, 365.000000)">
                    <path d="M22.5464643,9.38616238 L20.8784643,9.10305743 C20.7048873,8.54240792 20.4811811,8.00126733 20.208294,7.48517228 L21.1912722,6.11047129 C21.6080405,5.52477624 21.5440009,4.72557624 21.0325467,4.21877228 L19.5529585,2.73918416 C19.275414,2.4616396 18.9078576,2.30756436 18.515208,2.30756436 C18.2070338,2.30756436 17.9146615,2.40224317 17.6668199,2.58045149 L16.2865585,3.5634297 C15.7500516,3.28032475 15.1894021,3.04733465 14.6083407,2.87377426 L14.3307962,1.22618614 C14.2119843,0.51609505 13.6012199,-1.42108547e-14 12.880911,-1.42108547e-14 L10.7914853,-1.42108547e-14 C10.0721269,-1.42108547e-14 9.46133874,0.51609505 9.34160013,1.22618614 L9.05386151,2.91369505 C8.49786943,3.08727208 7.95670508,3.31561188 7.44061003,3.59408317 L6.07520013,2.61110495 C5.82735854,2.43195802 5.52940211,2.33821782 5.22122785,2.33821782 C4.82952884,2.33821782 4.45636448,2.49230257 4.18347735,2.76983762 L2.69925557,4.24942574 C2.19337906,4.75530297 2.12375529,5.55450297 2.54053003,6.14112475 L3.53372607,7.53623762 C3.26083894,8.05789307 3.04270032,8.59813069 2.87377359,9.15968317 L1.22618618,9.43722772 C0.516095095,9.5560396 1.22568622e-13,10.166804 1.22568622e-13,10.8871129 L1.22568622e-13,12.9765386 C1.22568622e-13,13.695897 0.516095095,14.3066851 1.22618618,14.4264238 L2.91369438,14.7141624 C3.08727141,15.2701545 3.31561121,15.8113188 3.5940825,16.3274139 L2.61573795,17.6872634 C2.19897034,18.2729584 2.26300995,19.0721584 2.77446349,19.5789624 L4.25405161,21.0585505 C4.53159616,21.336095 4.8991526,21.4901708 5.29180211,21.4901708 C5.59997636,21.4901708 5.89234864,21.395492 6.14019022,21.2172832 L7.5353031,20.2240871 C8.03654666,20.4867802 8.56283577,20.7002614 9.10400013,20.8691881 L9.38154468,22.5371886 C9.50035656,23.2472797 10.1111209,23.7633748 10.8314298,23.7633748 L12.926416,23.7633748 C13.6457744,23.7633748 14.2565625,23.2472797 14.3763011,22.5371886 L14.6594061,20.8691881 C15.2200556,20.6956111 15.7611962,20.471905 16.2772912,20.1990178 L17.6519922,21.181996 C17.8998338,21.361143 18.1977902,21.4548839 18.5059645,21.4548839 C18.8976635,21.4548839 19.2652437,21.3007984 19.543715,21.0232634 L21.0233031,19.5436752 C21.5291803,19.037798 21.5988041,18.238598 21.1820286,17.6519762 L20.1990504,16.2717149 C20.4719376,15.7500594 20.700294,15.2098218 20.8692207,14.6538297 L22.5372207,14.3762851 C23.2473118,14.2574733 23.7634069,13.6467089 23.7634069,12.9264 L23.7634069,10.8369743 C23.7726979,10.1157386 23.2556762,9.50497426 22.5465118,9.38616238 L22.5464643,9.38616238 Z M22.4322932,12.9255683 C22.4322932,12.9905442 22.3877387,13.0443802 22.3227629,13.0545909 L20.2379946,13.4017354 C19.9753015,13.4462899 19.766454,13.6402859 19.7014876,13.8927612 C19.5130591,14.6223374 19.2253134,15.3222107 18.8373213,15.9728958 C18.7036579,16.201238 18.7129395,16.4843335 18.8670243,16.7024721 L20.0932104,18.429878 C20.1275542,18.4790733 20.1229134,18.5542598 20.0783589,18.5988143 L18.5987708,20.0784024 C18.5644271,20.1127461 18.5291542,20.118316 18.504092,20.118316 C18.474389,20.118316 18.4493269,20.1081053 18.4298346,20.0932539 L16.7070623,18.8670677 C16.4935716,18.712983 16.2058187,18.7037014 15.9774861,18.8373648 C15.3268009,19.2244301 14.6269276,19.5121687 13.8973514,19.7015311 C13.6393158,19.7665069 13.4453197,19.9790756 13.4063257,20.238038 L13.053597,22.3228068 C13.0433863,22.3877827 12.9886211,22.4323371 12.9245744,22.4323371 L10.8351486,22.4323371 C10.7701728,22.4323371 10.7163368,22.3877827 10.7061261,22.3228068 L10.3589815,20.238038 C10.3144271,19.975345 10.120431,19.7664974 9.86795577,19.7015311 C9.15786468,19.5177434 8.4728429,19.2346479 7.83237557,18.8679945 C7.72841517,18.8085885 7.60867418,18.7788855 7.49449834,18.7788855 C7.36083498,18.7788855 7.22161121,18.8187992 7.107433,18.9032673 L5.36980923,20.1396475 C5.34474706,20.154499 5.32061399,20.1647097 5.29555181,20.1647097 C5.27605953,20.1647097 5.23614587,20.1600689 5.200873,20.124796 L3.72128488,18.6452079 C3.67673042,18.6006535 3.67208963,18.5310368 3.70643339,18.4762717 L4.92796211,16.7637172 C5.08204686,16.5455857 5.09132844,16.25784 4.95766508,16.0295073 C4.57059973,15.3844063 4.27264329,14.6845093 4.08420765,13.9549331 C4.01459102,13.7015311 3.8066631,13.5084618 3.54770072,13.4639073 L1.44808163,13.106545 C1.38310579,13.0963343 1.33855133,13.0415691 1.33855133,12.9775224 L1.33855133,10.8880966 C1.33855133,10.8231208 1.38310579,10.7692848 1.44808163,10.7590741 L3.51799775,10.4119295 C3.78069082,10.367375 3.99417201,10.173379 4.05913834,9.91534337 C4.24292607,9.18576713 4.52602151,8.4803097 4.90752646,7.83057505 C5.04118983,7.60223287 5.02633834,7.31913743 4.8731827,7.10563248 L3.6368025,5.36800871 C3.60245874,5.31881347 3.60709953,5.24362693 3.65165399,5.19907248 L5.13124211,3.71948436 C5.16558587,3.68514059 5.20085874,3.67957069 5.22592092,3.67957069 C5.25562389,3.67957069 5.28068607,3.68978139 5.30017834,3.70463287 L7.0127328,4.92616158 C7.23086428,5.08024634 7.51861003,5.08952792 7.7469427,4.95586455 C8.39204369,4.56879921 9.09194072,4.27084277 9.82151696,4.08240713 C10.0749189,4.0127905 10.2679882,3.80486257 10.3125427,3.5459002 L10.6699051,1.4462804 C10.6801158,1.38130455 10.7348809,1.3367501 10.7989276,1.3367501 L12.8883534,1.3367501 C12.9533292,1.3367501 13.0071653,1.38130455 13.017376,1.4462804 L13.3645205,3.51619723 C13.409075,3.7788903 13.603071,3.99237149 13.8611067,4.05733782 C14.6110948,4.24576634 15.3258433,4.53907248 15.9904294,4.93079525 C16.2187716,5.06445861 16.5018671,5.05517703 16.7200057,4.90109228 L18.4325601,3.67027248 C18.4576223,3.65542099 18.4817554,3.6452103 18.5068176,3.6452103 C18.5263122,3.6452103 18.5662235,3.64985109 18.6014964,3.68512396 L20.0810845,5.16471208 C20.1256389,5.20926653 20.1302797,5.27888317 20.095936,5.33364832 L18.8697498,7.05642059 C18.7156651,7.26991129 18.7063835,7.55766416 18.8400469,7.78599683 C19.2271122,8.43668198 19.5148508,9.13655525 19.7042132,9.86613149 C19.769189,10.1241671 19.9817577,10.3181632 20.2407201,10.3571572 L22.3254884,10.7098859 C22.3904643,10.7200966 22.4350187,10.7748618 22.4350187,10.8389085 L22.4350187,12.9283343 L22.4322932,12.9255683 Z" id="Fill-1"></path>
                    <path d="M11.8840484,6.74996436 C9.05489993,6.74996436 6.7566029,9.04823762 6.7566029,11.8774099 C6.7566029,14.7065822 9.05487616,17.0048554 11.8840484,17.0048554 C14.7132207,17.0048554 17.011494,14.7065822 17.011494,11.8774099 C17.011494,9.04823762 14.7132207,6.74996436 11.8840484,6.74996436 Z M11.8840484,15.6656079 C9.7946227,15.6656079 8.09680092,13.967905 8.09680092,11.8783604 C8.09680092,9.78893465 9.79450389,8.09111287 11.8840484,8.09111287 C13.973593,8.09111287 15.671296,9.78881584 15.671296,11.8783604 C15.671296,13.9677861 13.973593,15.6656079 11.8840484,15.6656079 Z" id="Fill-2"></path>
                </g>
            </g>
        </g>
    </g>
</svg>