<?xml version="1.0" encoding="UTF-8"?>
<svg width="21px" height="24px" viewBox="0 0 21 24" version="1.1" xmlns="http://www.w3.org/2000/svg" xmlns:xlink="http://www.w3.org/1999/xlink">
    <!-- Generator: Sketch 53.2 (72643) - https://sketchapp.com -->
    <title>Group 3</title>
    <desc>Created with Sketch.</desc>
    <g id="Page-1" stroke="none" stroke-width="1" fill="none" fill-rule="evenodd">
        <g id="Dashboard" transform="translate(-224.000000, -471.000000)" fill="#31DD00">
            <g id="Dashboard-card" transform="translate(0.000000, 391.000000)">
                <g id="Group-3" transform="translate(224.000000, 80.000000)">
                    <path d="M9.5,16.7245 C9.7998,17.3495 10.6748,17.3495 10.9746,16.7245 C10.9746,16.7245 14.4746,9.89925 15.27435,8.29975 C16.07415,6.70015 16.09955,4.875 15.27435,3.2245 C13.874925,0.45 10.4746,-0.675 7.7001,0.7245 C4.9246,2.1249 3.8251,5.625 5.2001,8.29975 C6.5497,10.9745 9.49985,16.7245 9.49985,16.7245 L9.5,16.7245 Z M10.25,2.95 C11.875,2.95 13.20025,4.2752 13.20025,5.90025 C13.20025,7.5253 11.87505,8.8505 10.25,8.8505 C8.62495,8.8505 7.29975,7.5253 7.29975,5.90025 C7.29975,4.24985 8.62495,2.95 10.25,2.95 Z" id="Fill-1"></path>
                    <path d="M20.0255,19.4745 L17.125,16.575 C16.875,16.325 16.5,16.2498 16.1748,16.374805 C15.8496,16.49981 15.625,16.825005 15.625,17.174605 L15.625,19.200005 L4.875,19.200005 L4.875,17.174605 C4.875,16.825005 4.65039,16.499805 4.3252,16.374805 C4,16.224415 3.625,16.325 3.375,16.575 L0.4745,19.4745 C0.12489925,19.8241 0.12489925,20.3749 0.4745,20.7245 L3.375,23.6250007 C3.549805,23.7998057 3.7754,23.8750007 4,23.8750007 C4.125,23.8750007 4.22461,23.8496107 4.3252,23.7998057 C4.6504,23.6748057 4.875,23.3496057 4.875,23.0000057 L4.875,20.974605 L15.625,20.974605 L15.625,23.0000057 C15.625,23.3496057 15.84961,23.6748057 16.1748,23.7998057 C16.27441,23.8496107 16.39941,23.8750007 16.5,23.8750007 C16.72461,23.8750007 16.9502,23.7753907 17.125,23.6250007 L20.0255,20.7245 C20.3751,20.3749 20.3751,19.825075 20.0255,19.4745 Z" id="Fill-2"></path>
                </g>
            </g>
        </g>
    </g>
</svg>