<?xml version="1.0" encoding="UTF-8"?>
<svg width="19px" height="20px" viewBox="0 0 19 20" version="1.1" xmlns="http://www.w3.org/2000/svg" xmlns:xlink="http://www.w3.org/1999/xlink">
    <!-- Generator: Sketch 53.2 (72643) - https://sketchapp.com -->
    <title>Group 4</title>
    <desc>Created with Sketch.</desc>
    <g id="Page-1" stroke="none" stroke-width="1" fill="none" fill-rule="evenodd">
        <g id="Your-driving-profile" transform="translate(-157.000000, -638.000000)" fill="#000000">
            <g id="Group-4" transform="translate(157.000000, 638.000000)">
                <path d="M6.37106296,17.246 C3.38276296,16.35928 -5.23793704,12.5741 4.53126296,-3.55271368e-15 C9.81646296,3.5859 11.851563,6.7383 12.226563,9.3477 C9.70316296,10.25395 7.96096296,12.0118 8.17966296,15.1954 C6.80466296,11.922 5.72266296,7.3946 5.25776296,4.5744 C5.02339296,7.8674 5.51167296,13.7306 6.37106296,17.2464 L6.37106296,17.246 Z" id="Path"></path>
                <path d="M11.183563,19.0507 C12.210863,17.0468 13.535163,15.2421 15.210863,13.7148 C13.152263,14.8515 11.324163,16.2968 9.74996296,18.0351 C9.01949296,16.0156 7.51166296,9.4374 18.804663,9.8007 C19.136693,20.1287 13.667963,19.7499 11.183563,19.0507 Z" id="Path"></path>
            </g>
        </g>
    </g>
</svg>